<svg width="57" height="57" viewBox="0 0 57 57" fill="none" xmlns="http://www.w3.org/2000/svg">
<path d="M24.48 17.7369L24.4794 17.7365C24.1383 17.4936 23.7369 17.3493 23.3192 17.3194C22.9016 17.2895 22.4837 17.3751 22.1115 17.5669C21.7392 17.7587 21.427 18.0492 21.2089 18.4067C20.9908 18.7641 20.8753 19.1747 20.875 19.5934V19.5938V37.4062V37.4066C20.8753 37.8253 20.9908 38.2359 21.2089 38.5933C21.427 38.9508 21.7392 39.2413 22.1115 39.4331C22.4837 39.6249 22.9016 39.7105 23.3192 39.6806C23.7369 39.6507 24.1383 39.5064 24.4794 39.2635L24.48 39.2631L36.9486 30.3569C36.9486 30.3569 36.9487 30.3568 36.9487 30.3568C37.2444 30.1458 37.4854 29.8672 37.6516 29.5443C37.8179 29.2213 37.9047 28.8633 37.9047 28.5C37.9047 28.1367 37.8179 27.7787 37.6516 27.4557C37.4854 27.1328 37.2444 26.8542 36.9487 26.6432C36.9487 26.6432 36.9486 26.6431 36.9486 26.6431L24.48 17.7369ZM56.5 28.5C56.5 35.9261 53.55 43.048 48.299 48.299C43.048 53.55 35.9261 56.5 28.5 56.5C21.0739 56.5 13.952 53.55 8.70101 48.299C3.44999 43.048 0.5 35.9261 0.5 28.5C0.5 21.0739 3.44999 13.952 8.70101 8.70101C13.952 3.44999 21.0739 0.5 28.5 0.5C35.9261 0.5 43.048 3.44999 48.299 8.70101C53.55 13.952 56.5 21.0739 56.5 28.5Z" fill="white" stroke="#C0C0C0"/>
</svg>
